PathFileType	4	(X/Y/Z)	T1_P1_Vision_Movement_4_0-662.trc
DataRate	CameraRate	NumFrames	NumMarkers	Units	OrigDataRate	OrigDataStartFrame	OrigNumFrames
60	60	4	27	m	60	82	662
Frame#	Time	RHip			RKnee			RAnkle			RBigToe			RSmallToe			RHeel			LHip			LKnee			LAnkle			LBigToe			LSmallToe			LHeel			Neck			Head			Nose			RShoulder			RElbow			RWrist			RThumb			RIndex			RPinky			LShoulder			LElbow			LWrist			LThumb			LIndex			LPinky		
		X1	Y1	Z1	X2	Y2	Z2	X3	Y3	Z3	X4	Y4	Z4	X5	Y5	Z5	X6	Y6	Z6	X7	Y7	Z7	X8	Y8	Z8	X9	Y9	Z9	X10	Y10	Z10	X11	Y11	Z11	X12	Y12	Z12	X13	Y13	Z13	X14	Y14	Z14	X15	Y15	Z15	X16	Y16	Z16	X17	Y17	Z17	X18	Y18	Z18	X19	Y19	Z19	X20	Y20	Z20	X21	Y21	Z21	X22	Y22	Z22	X23	Y23	Z23	X24	Y24	Z24	X25	Y25	Z25	X26	Y26	Z26	X27	Y27	Z27
83	1.3833333333333333	-102.96864606719552	3945.778902987182	-643.8803610688087	247.38732473603176	4026.3142303220116	-632.4142666747324	612.0704794731358	4272.346990783518	-689.149989259713	691.1426864120656	4175.816762679476	-645.2289330113022	680.8695459485702	4141.820501180203	-685.7857487845959	651.9253035582074	4322.588226614711	-699.9102332883249	-124.95410985973912	4079.689234076687	-501.927240487674	221.07691163076038	4166.634218986622	-489.5596395928442	572.6657021836935	4338.613661725566	-509.1512611103104	638.9744846708098	4196.233277789911	-387.45086198100245	623.7842727842338	4287.87855994478	-382.7654458158689	625.7446671988178	4417.618001954521	-542.7179899485327	-720.470121700555	3874.7552853261727	-593.5660478847494	-967.7952217515674	3760.454611660589	-540.5321072841667	-818.1964811699843	3732.66731459775	-480.93512858716247	-602.8196947990795	3814.626481943956	-723.1043172806604	-332.8296409944859	3754.5178707484893	-718.5340265928138	-472.87528912242186	3684.0655389941185	-551.4883789918093	-575.7277106348413	3649.1250484633424	-433.6615904670013	-573.7917267122848	3633.1954664140667	-414.5077632250623	-538.1877838923704	3646.2516981943254	-416.9940099403783	-649.757969070105	4024.4108016349537	-502.40969405072696	-396.6997014757036	4153.671786903217	-453.7039109708007	-152.82072821402772	4126.877195808298	-372.0416790537631	-24.092068234373755	4148.580114596283	-373.4291521649281	5.133419933789102	4189.920530838855	-366.55180611794015	-15.908121925052088	4188.398303143954	-341.2616386732051
84	1.4	-103.0168112597404	3946.393748313651	-644.0237023434423	247.26281567186436	4026.3453374176115	-632.4658998311266	611.7640880218971	4271.7512699000445	-688.950266320422	690.8998630175934	4175.8661131334375	-645.3256824718082	674.287419653414	4129.050040943822	-694.3612516833051	644.9326899385302	4318.706389458215	-700.0941104620188	-124.98851237733737	4079.612944554425	-501.82168431709164	215.71663935718846	4193.367312110413	-490.31258373525236	571.7233306988988	4339.2073727971465	-503.9522042205618	638.8158404466295	4196.1557841337	-387.4828979648289	623.6155875243184	4287.832471037417	-382.6350683392505	625.4331101375078	4417.27321469737	-542.3997681696358	-720.1749159125177	3874.802928998383	-599.7156303938912	-967.8523328933156	3760.5142612970712	-540.5741772246987	-818.2298739154792	3732.4693536531177	-480.81742794393665	-602.3608670994697	3813.2617537737333	-728.0496158979014	-338.17757475904745	3753.6265920865053	-718.6155170689343	-472.92089882643063	3683.9241050713817	-551.4370756390244	-575.9338769392862	3649.0508566094686	-433.69311445818	-573.896470859841	3632.9823888520255	-414.4985417995991	-538.2329666956812	3646.1404585054493	-416.9311214035201	-649.632087741245	4024.00064783548	-502.280552990294	-401.2710214195837	4149.977688364643	-452.1940795417733	-153.35125122004033	4125.672189737114	-365.7992768643844	-23.833895259652202	4148.207931908879	-373.4867297348998	6.042154308291651	4191.637932928106	-373.2472341725844	-15.930427197914081	4188.348488146578	-341.11545029663046
85	1.4166666666666667	-102.96400196778633	3945.731667717277	-643.7576141276608	251.44348885206327	3999.25637744823	-626.6430133452259	605.7340414505413	4267.576738993368	-686.9256233061101	685.7164530044903	4142.815449244111	-637.1623271885207	669.4204078428687	4104.916504960957	-674.7761713310878	645.1573756632913	4318.428921243669	-698.1717113180904	-124.94522560546997	4079.5822166613343	-501.8014223631532	220.55493036967906	4167.664388029999	-486.3469192461294	582.9182446846371	4374.162616964431	-514.5708021808961	643.4786754648767	4227.171090519282	-393.44623023062235	623.7618699728829	4288.119436081239	-382.86338196268326	625.2792694063934	4416.447296555598	-539.5924056036054	-720.2329580042813	3874.5461376353014	-599.7659010840645	-967.8560815103147	3760.4666921326325	-540.500926911559	-823.3779649492199	3731.4100629773684	-480.9581439712029	-602.3057965944045	3812.647744909859	-727.8350965012596	-335.94550534636613	3726.5765987906234	-710.6190105763652	-472.92805989347727	3683.535200543519	-551.2768793622212	-577.3530372616204	3647.8801150965496	-427.9486533136654	-574.6538385917169	3632.4448192383616	-414.4577985231031	-538.879806672656	3645.8112470369015	-416.92110099189864	-644.8594752708974	3994.5204042507094	-501.81296141534773	-396.6672856212038	4153.698464079228	-453.80069428785606	-153.8213587395531	4125.636184044223	-365.6455034127955	-33.951203094241876	4144.836726454185	-378.53922116965816	5.768729623079783	4163.15488862225	-368.251478914323	-16.310220811919717	4187.330298047795	-341.07604004280597
86	1.4333333333333333	-97.52827821928521	3949.1398562638624	-645.3589521007158	251.61689793564065	3998.903203257244	-626.5554960298455	613.4587664011796	4275.282367176974	-697.1772757847172	691.1234483851066	4176.163747263141	-645.3866777943408	680.8585255423679	4142.0272321249495	-685.8922736160059	645.4006720369014	4318.2606392424295	-697.8777973349469	-124.85867317378569	4079.426891338619	-501.74784081700994	220.9764985697591	4168.209221912655	-486.48386918153943	583.1123497462336	4374.4649643892	-514.6663043510963	644.5070415256574	4219.907890010754	-402.8099806209208	623.893535015384	4287.877176948695	-382.74571461062413	624.8865084165326	4416.307344281172	-539.7274267226551	-720.1516519193822	3874.55354149526	-599.7697791112355	-967.8436211249427	3760.3628631662423	-540.5149505943083	-818.1003655128551	3706.1513816077695	-475.00856589588966	-602.2721496232824	3812.8314344200103	-727.9031904734506	-325.63743860681114	3730.4739785638703	-711.9996325943229	-472.9062490253349	3683.465033945652	-551.2238668539829	-581.7722038674492	3646.5373281203765	-428.2513228529707	-574.3263206135924	3632.3077228857587	-414.2591184193306	-538.434820772203	3645.737596506279	-416.8518628119092	-644.8138230421812	3994.478590037331	-501.74286878257396	-396.57769218315343	4153.869075428741	-453.86215545389797	-153.24139944392203	4126.623940530818	-371.75599645097657	-34.47772795905187	4144.857296120629	-372.8871845886736	5.744125218098818	4190.387286262045	-371.2496373828948	-16.471163619510833	4187.769866106371	-341.3414478809211
